<?xml version="1.0" standalone="no"?>
<!DOCTYPE svg PUBLIC "-//W3C//DTD SVG 20010904//EN"
 "http://www.w3.org/TR/2001/REC-SVG-20010904/DTD/svg10.dtd">
<svg version="1.0" xmlns="http://www.w3.org/2000/svg"
 width="512.000000pt" height="512.000000pt" viewBox="0 0 512.000000 512.000000"
 preserveAspectRatio="xMidYMid meet">

<g transform="translate(0.000000,512.000000) scale(0.100000,-0.100000)"
fill="#ffffff" stroke="none">
<path d="M3 4263 c3 -829 4 -850 25 -945 66 -289 193 -533 380 -730 296 -310
673 -473 1097 -471 334 1 649 107 904 305 36 28 72 56 80 62 8 6 -6 -15 -31
-46 -155 -190 -256 -406 -309 -658 -29 -139 -32 -407 -6 -550 53 -288 191
-558 391 -768 202 -212 441 -351 739 -429 l102 -27 873 -4 873 -3 -4 843 c-3
831 -4 844 -26 943 -122 543 -491 962 -993 1128 -174 58 -268 72 -478 72 -163
-1 -212 -5 -297 -23 -245 -53 -479 -165 -653 -311 -30 -25 -50 -39 -44 -31
204 263 301 467 350 731 27 143 24 411 -5 549 -31 145 -73 267 -134 387 -225
444 -648 745 -1140 812 -50 7 -370 11 -888 11 l-810 0 4 -847z"/>
<path d="M4111 5100 c-173 -37 -306 -107 -435 -229 -365 -350 -345 -934 45
-1266 83 -72 239 -149 354 -176 76 -18 111 -20 225 -17 119 4 147 9 232 38
569 191 770 877 395 1348 -99 125 -268 236 -429 283 -83 24 -310 35 -387 19z"/>
<path d="M652 1480 c-316 -43 -572 -281 -636 -592 -68 -327 97 -666 395 -812
138 -68 195 -79 363 -73 119 3 153 8 214 30 198 71 344 203 432 392 134 285
75 620 -147 842 -62 61 -161 128 -240 161 -108 46 -267 67 -381 52z"/>
</g>
</svg>
