<?xml version="1.0" encoding="UTF-8"?>
<svg id="Layer_1" data-name="Layer 1" xmlns="http://www.w3.org/2000/svg" viewBox="0 0 738.68 738.68">
  <defs>
    <style>
      .cls-1 {
        fill: #fff;
        stroke-width: 0px;
      }
    </style>
  </defs>
  <path class="cls-1" d="m485.41,0h-.27c-40.87,2.18-80.69,11-118.33,26.22-31.21,12.58-60.6,29.46-87.33,50.17-58.62,45.23-101.85,106.18-125,176.25-5.89,17.78-10.39,36.05-13.46,54.5-3.81-9.16-7.04-18.52-9.64-27.99-6.07-21.56-9.15-43.97-9.15-66.64,0-47.14,13.33-92.98,38.55-132.58,17.68-27.82,40.38-51.47,67.46-70.29l.35-.24L247.37,0H0v196.84l.41-.54c1.46,61.85,18.43,122.47,49.3,175.81,19.56,33.78,44.2,64.11,73.24,90.15,10.76,9.69,22.3,18.86,34.29,27.25,43.39,30.59,93.75,51.66,146.02,61.14-28.58,11.23-58.78,16.93-89.88,16.93-3.7,0-6.78-.06-9.71-.2-28.76-1.12-56.7-7.15-83.08-17.93-40.62-16.54-76.18-43.77-102.82-78.73-2.67-3.43-5.36-7.16-8.51-11.79l-9.26-13.64v293.39h240.9l-.47-.35c45.63-.71,90.07-9.68,132.2-26.68,30.25-12.2,58.82-28.46,84.92-48.32,59.57-45.24,103.52-106.52,127.11-177.23,5.85-17.59,10.36-35.57,13.47-53.64,3.62,8.8,6.76,17.95,9.39,27.34,5.99,21.47,9.04,43.83,9.04,66.46,0,48.42-14,95.3-40.48,135.56-17.1,26.02-38.68,48.37-64.15,66.43l-.41.27-1.29.86-13.95,9.29h242.41v-192.86l-.34.57c-.88-63.07-17.9-124.97-49.37-179.35-19.56-33.88-44.25-64.26-73.4-90.31-10.26-9.24-21.23-18.06-32.62-26.2-44.39-31.48-95.85-52.98-149.11-62.36,29.8-12.23,61.4-18.44,94-18.44,2.52,0,5.04.05,7.56.15,28.44.83,56.15,6.46,82.4,16.74,40.76,15.86,76.8,42.49,104.24,77.01,2.4,3.1,4.99,6.5,7.43,9.96l9.21,13.05V0h-253.27Zm-24.79,296.46c38.75,15.38,73.14,40.52,99.69,72.85-35.21,42.82-84,72.79-137.83,84.58-17.39,3.79-35.26,5.71-53.11,5.71-31.36,0-61.85-5.77-90.6-17.14-39.07-15.39-73.7-40.64-100.39-73.15,35.32-42.96,84.38-72.96,138.58-84.68,17.19-3.69,34.83-5.56,52.41-5.56,31.51,0,62.21,5.85,91.26,17.39Z"/>
</svg>