<?xml version="1.0" encoding="UTF-8"?>
<svg id="Layer_1" data-name="Layer 1" xmlns="http://www.w3.org/2000/svg" viewBox="0 0 432.34 110.52">
  <defs>
    <style>
      .cls-1 {
        fill: #fff;
        stroke-width: 0px;
      }
    </style>
  </defs>
  <g>
    <path class="cls-1" d="m154.66,31.57h23.83c5.52,0,10.42,1.03,14.69,3.1,4.27,2.06,7.58,4.99,9.94,8.78,2.35,3.79,3.53,8.23,3.53,13.32s-1.18,9.53-3.53,13.32c-2.35,3.79-5.66,6.72-9.94,8.78-4.27,2.06-9.17,3.1-14.69,3.1h-23.83V31.57Zm23.26,39.02c4.32,0,7.79-1.22,10.4-3.67,2.62-2.45,3.92-5.83,3.92-10.15s-1.31-7.7-3.92-10.15c-2.62-2.45-6.08-3.67-10.4-3.67h-9v27.65h9Z"/>
    <path class="cls-1" d="m235.13,68.58h-7.78v13.39h-14.26V31.57h23.04c4.56,0,8.52.76,11.88,2.27,3.36,1.51,5.95,3.67,7.78,6.48,1.82,2.81,2.74,6.11,2.74,9.9s-.85,6.83-2.56,9.54c-1.7,2.71-4.14,4.84-7.31,6.37l10.87,15.84h-15.26l-9.14-13.39Zm6.77-23.83c-1.49-1.3-3.7-1.94-6.62-1.94h-7.92v14.76h7.92c2.93,0,5.14-.64,6.62-1.91,1.49-1.27,2.23-3.08,2.23-5.44s-.75-4.18-2.23-5.47Z"/>
    <path class="cls-1" d="m305.98,70.96v11.02h-40.46V31.57h39.53v11.02h-25.42v8.5h22.39v10.66h-22.39v9.22h26.35Z"/>
    <path class="cls-1" d="m348.1,72.18h-21.31l-3.96,9.79h-14.54l22.25-50.4h14.04l22.32,50.4h-14.83l-3.96-9.79Zm-4.18-10.51l-6.48-16.13-6.48,16.13h12.96Z"/>
    <path class="cls-1" d="m370.16,31.57h14.26v39.1h24.05v11.3h-38.3V31.57Z"/>
  </g>
  <g>
    <path class="cls-1" d="m72.63,0h-.04c-6.12.33-12.07,1.65-17.71,3.92-4.67,1.88-9.07,4.41-13.07,7.51-8.77,6.77-15.24,15.89-18.7,26.37-.88,2.66-1.56,5.39-2.01,8.15-.57-1.37-1.05-2.77-1.44-4.19-.91-3.23-1.37-6.58-1.37-9.97,0-7.05,1.99-13.91,5.77-19.84,2.65-4.16,6.04-7.7,10.09-10.52l.05-.04,2.81-1.41H0v29.45l.06-.08c.22,9.25,2.76,18.32,7.38,26.31,2.93,5.05,6.61,9.59,10.96,13.49,1.61,1.45,3.34,2.82,5.13,4.08,6.49,4.58,14.03,7.73,21.85,9.15-4.28,1.68-8.8,2.53-13.45,2.53-.55,0-1.01,0-1.45-.03-4.3-.17-8.48-1.07-12.43-2.68-6.08-2.48-11.4-6.55-15.39-11.78-.4-.51-.8-1.07-1.27-1.76l-1.39-2.04v43.9h36.04l-.07-.05c6.83-.11,13.48-1.45,19.78-3.99,4.53-1.83,8.8-4.26,12.71-7.23,8.91-6.77,15.49-15.94,19.02-26.52.88-2.63,1.55-5.32,2.01-8.03.54,1.32,1.01,2.69,1.41,4.09.9,3.21,1.35,6.56,1.35,9.94,0,7.24-2.09,14.26-6.06,20.28-2.56,3.89-5.79,7.24-9.6,9.94l-.06.04-.19.13-2.09,1.39h36.27v-28.86l-.05.08c-.13-9.44-2.68-18.7-7.39-26.84-2.93-5.07-6.62-9.62-10.98-13.51-1.53-1.38-3.18-2.7-4.88-3.92-6.64-4.71-14.34-7.93-22.31-9.33,4.46-1.83,9.19-2.76,14.06-2.76.38,0,.75,0,1.13.02,4.26.12,8.4.97,12.33,2.5,6.1,2.37,11.49,6.36,15.6,11.52.36.46.75.97,1.11,1.49l1.38,1.95V0h-37.9Zm-3.71,44.36c5.8,2.3,10.94,6.06,14.92,10.9-5.27,6.41-12.57,10.89-20.62,12.65-2.6.57-5.28.85-7.95.85-4.69,0-9.25-.86-13.56-2.56-5.85-2.3-11.03-6.08-15.02-10.95,5.28-6.43,12.62-10.92,20.73-12.67,2.57-.55,5.21-.83,7.84-.83,4.71,0,9.31.88,13.65,2.6Z"/>
    <path class="cls-1" d="m428.6,2.26c-1.62-1.36-3.55-2.06-5.67-2.21-.08,0-.16-.03-.24-.05h-.91c-.48.07-.97.11-1.45.22-4,.89-6.63,3.28-7.8,7.22-1.16,3.93.34,8.43,3.61,10.85,2.01,1.49,4.28,2.18,6.79,2.02,4.67-.29,8.55-3.8,9.26-8.44.59-3.85-.61-7.1-3.59-9.61Zm-6.36,16.38c-4.64,0-8.42-3.81-8.41-8.48.08-4.71,3.66-8.53,8.58-8.44,4.95.09,8.27,3.99,8.26,8.55,0,4.62-3.78,8.36-8.43,8.37Z"/>
    <path class="cls-1" d="m425.45,12.43c-1.15,2.23-3.92,2.73-5.66,1.03-1.69-1.64-1.77-4.55-.18-6.28,1.23-1.34,3.09-1.59,4.56-.61.52.35.91.81,1.24,1.35.57-.33,1.11-.65,1.69-.98-.2-.28-.37-.54-.56-.79-1.89-2.42-5.27-2.83-7.67-.93-2.57,2.03-3.12,6-1.19,8.74.99,1.4,2.32,2.3,4.05,2.44,2.27.18,3.98-.82,5.21-2.69.26-.39.44-.84.66-1.28-.66-.23-1.25-.44-1.85-.65-.11.23-.2.44-.31.65Z"/>
  </g>
</svg>